<svg xmlns="http://www.w3.org/2000/svg" xmlns:xlink="http://www.w3.org/1999/xlink" id="body_5" preserveAspectRatio="xMinYMin meet" viewBox="0 0 793 1121"><defs><clipPath id="1"><path id="" clip-rule="evenodd" d="M0 841L0 -0.9199829L0 -0.9199829L595.32 -0.9199829L595.32 -0.9199829L595.32 841L595.32 841L0 841z" /></clipPath><clipPath id="2"><path id="" clip-rule="evenodd" d="M0 841L595.31 841L595.31 841L595.31 -0.9110107L595.31 -0.9110107L0 -0.9110107z" /></clipPath><clipPath id="3"><path id="" clip-rule="evenodd" d="M90 303.511L518.319 303.511L518.319 303.511L518.319 277.98L518.319 277.98L90 277.98z" /></clipPath><clipPath id="4"><path id="" clip-rule="evenodd" d="M0 841L595.31 841L595.31 841L595.31 -0.9110107L595.31 -0.9110107L0 -0.9110107z" /></clipPath><clipPath id="5"><path id="" clip-rule="evenodd" d="M0 841L595.31 841L595.31 841L595.31 -0.9110107L595.31 -0.9110107L0 -0.9110107z" /></clipPath><clipPath id="6"><path id="" clip-rule="evenodd" d="M0 841L595.31 841L595.31 841L595.31 -0.9110107L595.31 -0.9110107L0 -0.9110107z" /></clipPath><clipPath id="7"><path id="" clip-rule="evenodd" d="M0 841L595.31 841L595.31 841L595.31 -0.9110107L595.31 -0.9110107L0 -0.9110107z" /></clipPath><clipPath id="8"><path id="" clip-rule="evenodd" d="M0 841L595.31 841L595.31 841L595.31 -0.9110107L595.31 -0.9110107L0 -0.9110107z" /></clipPath><clipPath id="9"><path id="" clip-rule="evenodd" d="M0 841L595.31 841L595.31 841L595.31 -0.9110107L595.31 -0.9110107L0 -0.9110107z" /></clipPath><clipPath id="10"><path id="" clip-rule="evenodd" d="M0 841L595.31 841L595.31 841L595.31 -0.9110107L595.31 -0.9110107L0 -0.9110107z" /></clipPath><clipPath id="11"><path id="" clip-rule="evenodd" d="M0 841L595.31 841L595.31 841L595.31 -0.9110107L595.31 -0.9110107L0 -0.9110107z" /></clipPath><clipPath id="12"><path id="" clip-rule="evenodd" d="M0 841L595.31 841L595.31 841L595.31 -0.9110107L595.31 -0.9110107L0 -0.9110107z" /></clipPath><clipPath id="13"><path id="" clip-rule="evenodd" d="M0 841L595.31 841L595.31 841L595.31 -0.9110107L595.31 -0.9110107L0 -0.9110107z" /></clipPath><clipPath id="14"><path id="" clip-rule="evenodd" d="M0 841L595.31 841L595.31 841L595.31 -0.9110107L595.31 -0.9110107L0 -0.9110107z" /></clipPath><clipPath id="15"><path id="" clip-rule="evenodd" d="M0 841L595.31 841L595.31 841L595.31 -0.9110107L595.31 -0.9110107L0 -0.9110107z" /></clipPath><clipPath id="16"><path id="" clip-rule="evenodd" d="M0 841L595.31 841L595.31 841L595.31 -0.9110107L595.31 -0.9110107L0 -0.9110107z" /></clipPath><clipPath id="17"><path id="" clip-rule="evenodd" d="M0 841L595.31 841L595.31 841L595.31 -0.9110107L595.31 -0.9110107L0 -0.9110107z" /></clipPath><clipPath id="18"><path id="" clip-rule="evenodd" d="M0 841L595.31 841L595.31 841L595.31 -0.9110107L595.31 -0.9110107L0 -0.9110107z" /></clipPath></defs><g transform="matrix(1.333333 0 0 1.333333 0 0)"><g clip-path="url(#1)"><path id="30" transform="matrix(1 0 0 -1 0 841)" d="M88.56 777.84L506.76 777.84L506.76 777.84L506.76 779.28L506.76 779.28L88.56 779.28z" stroke="none" fill="#000000" fill-rule="evenodd" /><path id="31" transform="matrix(1 0 0 -1 0 841)" d="M88.56 780L506.76 780L506.76 780.72L88.56 780.72z" stroke="none" fill="#000000" fill-rule="nonzero" /><g transform="matrix(0.4619056 0 0 0.4642857 375.5999 141.38)"><g transform="matrix(1 0 0 1 0 0)"><image x="0" y="0" xlink:href="img_06.png" width="21" height="21" /></g></g><g clip-path="url(#2)"></g><g clip-path="url(#3)"><g transform="matrix(0.438852 0 0 0.432739 89.99984 277.9796)"><g transform="matrix(1 0 0 1 0 0)"><image x="0" y="0" xlink:href="img_07.png" width="976" height="59" /></g></g></g><g clip-path="url(#4)"></g><g clip-path="url(#5)"></g><g clip-path="url(#6)"></g><g clip-path="url(#7)"></g><g clip-path="url(#8)"></g><g clip-path="url(#9)"></g><g clip-path="url(#10)"></g><g clip-path="url(#11)"></g><g clip-path="url(#12)"></g><g clip-path="url(#13)"></g><g transform="matrix(0.4438211 0 0 0.4443666 111 406.3799)"><g transform="matrix(1 0 0 1 0 0)"><image x="0" y="0" xlink:href="img_08.png" width="884" height="497" /></g></g><g clip-path="url(#14)"></g><g clip-path="url(#15)"></g><g clip-path="url(#16)"></g><g clip-path="url(#17)"></g><g clip-path="url(#18)"></g><path id="463" transform="matrix(1 0 0 -1 0 841)" d="M166.95 350.82L236.546 360.342" stroke="#000000" stroke-width="1" fill="none" /><path id="464" transform="matrix(1 0 0 -1 0 841)" d="M235.1488 363.1793L241.4998 361.0203L241.4998 361.0203L235.9618 357.2343z" stroke="none" fill="#000000" fill-rule="evenodd" /></g></g></svg>