<svg xmlns="http://www.w3.org/2000/svg" xmlns:xlink="http://www.w3.org/1999/xlink" id="body_11" preserveAspectRatio="xMinYMin meet" viewBox="0 0 793 1121"><defs><clipPath id="1"><path id="" clip-rule="evenodd" d="M0 841L0 -0.9199829L0 -0.9199829L595.32 -0.9199829L595.32 -0.9199829L595.32 841L595.32 841L0 841z" /></clipPath><clipPath id="2"><path id="" clip-rule="evenodd" d="M0 841L595.31 841L595.31 841L595.31 -0.9110107L595.31 -0.9110107L0 -0.9110107z" /></clipPath><clipPath id="3"><path id="" clip-rule="evenodd" d="M0 841L595.31 841L595.31 841L595.31 -0.9110107L595.31 -0.9110107L0 -0.9110107z" /></clipPath><clipPath id="4"><path id="" clip-rule="evenodd" d="M0 841L595.31 841L595.31 841L595.31 -0.9110107L595.31 -0.9110107L0 -0.9110107z" /></clipPath><clipPath id="5"><path id="" clip-rule="evenodd" d="M0 841L595.31 841L595.31 841L595.31 -0.9110107L595.31 -0.9110107L0 -0.9110107z" /></clipPath><clipPath id="6"><path id="" clip-rule="evenodd" d="M0 841L595.31 841L595.31 841L595.31 -0.9110107L595.31 -0.9110107L0 -0.9110107z" /></clipPath><clipPath id="7"><path id="" clip-rule="evenodd" d="M0 841L595.31 841L595.31 841L595.31 -0.9110107L595.31 -0.9110107L0 -0.9110107z" /></clipPath><clipPath id="8"><path id="" clip-rule="evenodd" d="M0 841L595.31 841L595.31 841L595.31 -0.9110107L595.31 -0.9110107L0 -0.9110107z" /></clipPath><clipPath id="9"><path id="" clip-rule="evenodd" d="M0 841L595.31 841L595.31 841L595.31 -0.9110107L595.31 -0.9110107L0 -0.9110107z" /></clipPath><clipPath id="10"><path id="" clip-rule="evenodd" d="M0 841L595.31 841L595.31 841L595.31 -0.9110107L595.31 -0.9110107L0 -0.9110107z" /></clipPath><clipPath id="11"><path id="" clip-rule="evenodd" d="M0 841L595.31 841L595.31 841L595.31 -0.9110107L595.31 -0.9110107L0 -0.9110107z" /></clipPath><clipPath id="12"><path id="" clip-rule="evenodd" d="M0 841L595.31 841L595.31 841L595.31 -0.9110107L595.31 -0.9110107L0 -0.9110107z" /></clipPath><clipPath id="13"><path id="" clip-rule="evenodd" d="M0 841L595.31 841L595.31 841L595.31 -0.9110107L595.31 -0.9110107L0 -0.9110107z" /></clipPath><clipPath id="14"><path id="" clip-rule="evenodd" d="M0 841L595.31 841L595.31 841L595.31 -0.9110107L595.31 -0.9110107L0 -0.9110107z" /></clipPath><clipPath id="15"><path id="" clip-rule="evenodd" d="M0 841L595.31 841L595.31 841L595.31 -0.9110107L595.31 -0.9110107L0 -0.9110107z" /></clipPath><clipPath id="16"><path id="" clip-rule="evenodd" d="M0 841L595.31 841L595.31 841L595.31 -0.9110107L595.31 -0.9110107L0 -0.9110107z" /></clipPath><clipPath id="17"><path id="" clip-rule="evenodd" d="M0 841L595.31 841L595.31 841L595.31 -0.9110107L595.31 -0.9110107L0 -0.9110107z" /></clipPath><clipPath id="18"><path id="" clip-rule="evenodd" d="M0 841L595.31 841L595.31 841L595.31 -0.9110107L595.31 -0.9110107L0 -0.9110107z" /></clipPath><clipPath id="19"><path id="" clip-rule="evenodd" d="M0 841L595.31 841L595.31 841L595.31 -0.9110107L595.31 -0.9110107L0 -0.9110107z" /></clipPath><clipPath id="20"><path id="" clip-rule="evenodd" d="M0 841L595.31 841L595.31 841L595.31 -0.9110107L595.31 -0.9110107L0 -0.9110107z" /></clipPath><clipPath id="21"><path id="" clip-rule="evenodd" d="M0 841L595.31 841L595.31 841L595.31 -0.9110107L595.31 -0.9110107L0 -0.9110107z" /></clipPath><clipPath id="22"><path id="" clip-rule="evenodd" d="M0 841L595.32 841L595.32 841L595.32 -0.9199829L595.32 -0.9199829L0 -0.9199829z" /></clipPath><clipPath id="23"><path id="" clip-rule="evenodd" d="M0 841L595.32 841L595.32 841L595.32 -0.9199829L595.32 -0.9199829L0 -0.9199829z" /></clipPath></defs><g transform="matrix(1.333333 0 0 1.333333 0 0)"><g clip-path="url(#1)"><path id="30" transform="matrix(1 0 0 -1 0 841)" d="M88.56 777.84L506.76 777.84L506.76 777.84L506.76 779.28L506.76 779.28L88.56 779.28z" stroke="none" fill="#000000" fill-rule="evenodd" /><path id="31" transform="matrix(1 0 0 -1 0 841)" d="M88.56 780L506.76 780L506.76 780.72L88.56 780.72z" stroke="none" fill="#000000" fill-rule="nonzero" /><g transform="matrix(0.4322652 0 0 0.4315509 111 121.48)"><g transform="matrix(1 0 0 1 0 0)"><image x="0" y="0" xlink:href="img_28.png" width="922" height="404" /></g></g><g clip-path="url(#2)"></g><g clip-path="url(#3)"></g><g clip-path="url(#4)"></g><g clip-path="url(#5)"></g><g clip-path="url(#6)"></g><g clip-path="url(#7)"></g><g clip-path="url(#8)"></g><g clip-path="url(#9)"></g><g clip-path="url(#10)"></g><g transform="matrix(0.6263341 0 0 0.6252855 210.8499 409.8299)"><g transform="matrix(1 0 0 1 0 0)"><image x="0" y="0" xlink:href="img_29.png" width="311" height="223" /></g></g><g clip-path="url(#11)"></g><g clip-path="url(#12)"></g><g clip-path="url(#13)"></g><g clip-path="url(#14)"></g><g clip-path="url(#15)"></g><g clip-path="url(#16)"></g><g clip-path="url(#17)"></g><g clip-path="url(#18)"></g><g clip-path="url(#19)"></g><g clip-path="url(#20)"></g><g clip-path="url(#21)"></g><g clip-path="url(#22)"><path id="245" transform="matrix(1 0 0 -1 0 841)" d="M242.5667 737.97C 235.2957 737.97 229.3997 735.5 229.3997 732.4529L229.3997 732.4529L229.3997 718.662L229.3997 718.662L229.3997 710.387C 229.3997 707.34 235.2957 704.87 242.5667 704.87L242.5667 704.87L218.9507 672.519L218.9507 672.519L262.3167 704.87L262.3167 704.87L295.2337 704.87C 302.5047 704.87 308.3997 707.34 308.3997 710.387L308.3997 710.387L308.3997 718.662L308.3997 718.662L308.3997 732.4529C 308.3997 735.5 302.5047 737.97 295.2337 737.97L295.2337 737.97L262.3167 737.97z" stroke="none" fill="#FFFFFF" fill-rule="evenodd" /><path id="246" transform="matrix(1 0 0 -1 0 841)" d="M242.5667 737.97C 235.2957 737.97 229.3997 735.5 229.3997 732.4529L229.3997 732.4529L229.3997 718.662L229.3997 718.662L229.3997 710.387C 229.3997 707.34 235.2957 704.87 242.5667 704.87L242.5667 704.87L218.9507 672.519L218.9507 672.519L262.3167 704.87L262.3167 704.87L295.2337 704.87C 302.5047 704.87 308.3997 707.34 308.3997 710.387L308.3997 710.387L308.3997 718.662L308.3997 718.662L308.3997 732.4529C 308.3997 735.5 302.5047 737.97 295.2337 737.97L295.2337 737.97L262.3167 737.97L262.3167 737.97L242.5667 737.97z" stroke="#000000" stroke-width="0.75" stroke-linecap="round" fill="none" /></g><g clip-path="url(#23)"><path id="252" transform="matrix(1 0 0 -1 0 841)" d="M340.975 718.22C 334.583 718.22 329.4 715.75 329.4 712.7029L329.4 712.7029L329.4 698.912L329.4 698.912L329.4 690.637C 329.4 687.59 334.583 685.12 340.975 685.12L340.975 685.12L319.101 655.27L319.101 655.27L358.338 685.12L358.338 685.12L387.275 685.12C 393.667 685.12 398.85 687.59 398.85 690.637L398.85 690.637L398.85 698.912L398.85 698.912L398.85 712.7029C 398.85 715.75 393.667 718.22 387.275 718.22L387.275 718.22L358.338 718.22z" stroke="none" fill="#FFFFFF" fill-rule="evenodd" /><path id="253" transform="matrix(1 0 0 -1 0 841)" d="M340.975 718.22C 334.583 718.22 329.4 715.75 329.4 712.7029L329.4 712.7029L329.4 698.912L329.4 698.912L329.4 690.637C 329.4 687.59 334.583 685.12 340.975 685.12L340.975 685.12L319.101 655.27L319.101 655.27L358.338 685.12L358.338 685.12L387.275 685.12C 393.667 685.12 398.85 687.59 398.85 690.637L398.85 690.637L398.85 698.912L398.85 698.912L398.85 712.7029C 398.85 715.75 393.667 718.22 387.275 718.22L387.275 718.22L358.338 718.22L358.338 718.22L340.975 718.22z" stroke="#000000" stroke-width="0.75" stroke-linecap="round" fill="none" /></g></g></g></svg>