<svg xmlns="http://www.w3.org/2000/svg" xmlns:xlink="http://www.w3.org/1999/xlink" id="body_6" preserveAspectRatio="xMinYMin meet" viewBox="0 0 793 1121"><defs><clipPath id="1"><path id="" clip-rule="evenodd" d="M0 841L0 -0.9199829L0 -0.9199829L595.32 -0.9199829L595.32 -0.9199829L595.32 841L595.32 841L0 841z" /></clipPath><clipPath id="2"><path id="" clip-rule="evenodd" d="M0 841L595.31 841L595.31 841L595.31 -0.9110107L595.31 -0.9110107L0 -0.9110107z" /></clipPath><clipPath id="3"><path id="" clip-rule="evenodd" d="M0 841L595.31 841L595.31 841L595.31 -0.9110107L595.31 -0.9110107L0 -0.9110107z" /></clipPath><clipPath id="4"><path id="" clip-rule="evenodd" d="M0 841L595.31 841L595.31 841L595.31 -0.9110107L595.31 -0.9110107L0 -0.9110107z" /></clipPath><clipPath id="5"><path id="" clip-rule="evenodd" d="M0 841L595.31 841L595.31 841L595.31 -0.9110107L595.31 -0.9110107L0 -0.9110107z" /></clipPath><clipPath id="6"><path id="" clip-rule="evenodd" d="M0 841L595.31 841L595.31 841L595.31 -0.9110107L595.31 -0.9110107L0 -0.9110107z" /></clipPath><clipPath id="7"><path id="" clip-rule="evenodd" d="M0 841L595.31 841L595.31 841L595.31 -0.9110107L595.31 -0.9110107L0 -0.9110107z" /></clipPath><clipPath id="8"><path id="" clip-rule="evenodd" d="M0 841L595.31 841L595.31 841L595.31 -0.9110107L595.31 -0.9110107L0 -0.9110107z" /></clipPath><clipPath id="9"><path id="" clip-rule="evenodd" d="M0 841L595.31 841L595.31 841L595.31 -0.9110107L595.31 -0.9110107L0 -0.9110107z" /></clipPath><clipPath id="10"><path id="" clip-rule="evenodd" d="M0 841L595.31 841L595.31 841L595.31 -0.9110107L595.31 -0.9110107L0 -0.9110107z" /></clipPath><clipPath id="11"><path id="" clip-rule="evenodd" d="M0 841L595.31 841L595.31 841L595.31 -0.9110107L595.31 -0.9110107L0 -0.9110107z" /></clipPath></defs><g transform="matrix(1.333333 0 0 1.333333 0 0)"><g clip-path="url(#1)"><path id="30" transform="matrix(1 0 0 -1 0 841)" d="M88.56 777.84L506.76 777.84L506.76 777.84L506.76 779.28L506.76 779.28L88.56 779.28z" stroke="none" fill="#000000" fill-rule="evenodd" /><path id="31" transform="matrix(1 0 0 -1 0 841)" d="M88.56 780L506.76 780L506.76 780.72L88.56 780.72z" stroke="none" fill="#000000" fill-rule="nonzero" /><g clip-path="url(#2)"></g><g clip-path="url(#3)"></g><g clip-path="url(#4)"></g><g transform="matrix(0.4533938 0 0 0.454301 111 97.97998)"><g transform="matrix(1 0 0 1 0 0)"><image x="0" y="0" xlink:href="img_10.png" width="863" height="503" /></g></g><g clip-path="url(#5)"></g><g clip-path="url(#6)"></g><g clip-path="url(#7)"></g><g clip-path="url(#8)"></g><g transform="matrix(0.4688217 0 0 0.4683953 111 429.5298)"><g transform="matrix(1 0 0 1 0 0)"><image x="0" y="0" xlink:href="img_11.png" width="836" height="498" /></g></g><g clip-path="url(#9)"></g><g clip-path="url(#10)"></g><g clip-path="url(#11)"></g></g></g></svg>