<svg xmlns="http://www.w3.org/2000/svg" xmlns:xlink="http://www.w3.org/1999/xlink" id="body_12" preserveAspectRatio="xMinYMin meet" viewBox="0 0 793 1121"><defs><clipPath id="1"><path id="" clip-rule="evenodd" d="M0 841L0 -0.9199829L0 -0.9199829L595.32 -0.9199829L595.32 -0.9199829L595.32 841L595.32 841L0 841z" /></clipPath><clipPath id="2"><path id="" clip-rule="evenodd" d="M111 259.053L483.601 259.053L483.601 259.053L483.601 78.63L483.601 78.63L111 78.63z" /></clipPath><clipPath id="3"><path id="" clip-rule="evenodd" d="M0 841L595.31 841L595.31 841L595.31 -0.9110107L595.31 -0.9110107L0 -0.9110107z" /></clipPath><clipPath id="4"><path id="" clip-rule="evenodd" d="M0 841L595.31 841L595.31 841L595.31 -0.9110107L595.31 -0.9110107L0 -0.9110107z" /></clipPath><clipPath id="5"><path id="" clip-rule="evenodd" d="M0 841L595.31 841L595.31 841L595.31 -0.9110107L595.31 -0.9110107L0 -0.9110107z" /></clipPath><clipPath id="6"><path id="" clip-rule="evenodd" d="M0 841L595.31 841L595.31 841L595.31 -0.9110107L595.31 -0.9110107L0 -0.9110107z" /></clipPath><clipPath id="7"><path id="" clip-rule="evenodd" d="M0 841L595.31 841L595.31 841L595.31 -0.9110107L595.31 -0.9110107L0 -0.9110107z" /></clipPath><clipPath id="8"><path id="" clip-rule="evenodd" d="M0 841L595.31 841L595.31 841L595.31 -0.9110107L595.31 -0.9110107L0 -0.9110107z" /></clipPath><clipPath id="9"><path id="" clip-rule="evenodd" d="M0 841L595.31 841L595.31 841L595.31 -0.9110107L595.31 -0.9110107L0 -0.9110107z" /></clipPath><clipPath id="10"><path id="" clip-rule="evenodd" d="M0 841L595.31 841L595.31 841L595.31 -0.9110107L595.31 -0.9110107L0 -0.9110107z" /></clipPath><clipPath id="11"><path id="" clip-rule="evenodd" d="M0 841L595.31 841L595.31 841L595.31 -0.9110107L595.31 -0.9110107L0 -0.9110107z" /></clipPath><clipPath id="12"><path id="" clip-rule="evenodd" d="M0 841L595.31 841L595.31 841L595.31 -0.9110107L595.31 -0.9110107L0 -0.9110107z" /></clipPath><clipPath id="13"><path id="" clip-rule="evenodd" d="M0 841L595.31 841L595.31 841L595.31 -0.9110107L595.31 -0.9110107L0 -0.9110107z" /></clipPath><clipPath id="14"><path id="" clip-rule="evenodd" d="M0 841L595.31 841L595.31 841L595.31 -0.9110107L595.31 -0.9110107L0 -0.9110107z" /></clipPath><clipPath id="15"><path id="" clip-rule="evenodd" d="M0 841L595.31 841L595.31 841L595.31 -0.9110107L595.31 -0.9110107L0 -0.9110107z" /></clipPath><clipPath id="16"><path id="" clip-rule="evenodd" d="M0 841L595.31 841L595.31 841L595.31 -0.9110107L595.31 -0.9110107L0 -0.9110107z" /></clipPath><clipPath id="17"><path id="" clip-rule="evenodd" d="M0 841L595.31 841L595.31 841L595.31 -0.9110107L595.31 -0.9110107L0 -0.9110107z" /></clipPath><clipPath id="18"><path id="" clip-rule="evenodd" d="M0 841L595.31 841L595.31 841L595.31 -0.9110107L595.31 -0.9110107L0 -0.9110107z" /></clipPath><clipPath id="19"><path id="" clip-rule="evenodd" d="M92.15 740.473L502.855 740.473L502.855 740.473L502.855 532.23L502.855 532.23L92.15 532.23z" /></clipPath><clipPath id="20"><path id="" clip-rule="evenodd" d="M0 841L595.31 841L595.31 841L595.31 -0.9110107L595.31 -0.9110107L0 -0.9110107z" /></clipPath><clipPath id="21"><path id="" clip-rule="evenodd" d="M0 841L595.31 841L595.31 841L595.31 -0.9110107L595.31 -0.9110107L0 -0.9110107z" /></clipPath><clipPath id="22"><path id="" clip-rule="evenodd" d="M0 841L595.31 841L595.31 841L595.31 -0.9110107L595.31 -0.9110107L0 -0.9110107z" /></clipPath><clipPath id="23"><path id="" clip-rule="evenodd" d="M0 841L595.31 841L595.31 841L595.31 -0.9110107L595.31 -0.9110107L0 -0.9110107z" /></clipPath></defs><g transform="matrix(1.333333 0 0 1.333333 0 0)"><g clip-path="url(#1)"><path id="30" transform="matrix(1 0 0 -1 0 841)" d="M88.56 777.84L506.76 777.84L506.76 777.84L506.76 779.28L506.76 779.28L88.56 779.28z" stroke="none" fill="#000000" fill-rule="evenodd" /><path id="31" transform="matrix(1 0 0 -1 0 841)" d="M88.56 780L506.76 780L506.76 780.72L88.56 780.72z" stroke="none" fill="#000000" fill-rule="nonzero" /><g clip-path="url(#2)"><g transform="matrix(0.4219716 0 0 0.4205652 111 78.63)"><g transform="matrix(1 0 0 1 0 0)"><image x="0" y="0" xlink:href="img_31.png" width="883" height="429" /></g></g></g><g clip-path="url(#3)"></g><g clip-path="url(#4)"></g><g clip-path="url(#5)"></g><g clip-path="url(#6)"></g><g clip-path="url(#7)"></g><g clip-path="url(#8)"></g><g clip-path="url(#9)"></g><g clip-path="url(#10)"></g><g clip-path="url(#11)"></g><g clip-path="url(#12)"></g><g transform="matrix(0.37382 0 0 0.3740691 111 342.98)"><g transform="matrix(1 0 0 1 0 0)"><image x="0" y="0" xlink:href="img_32.png" width="1003" height="330" /></g></g><g clip-path="url(#13)"></g><g clip-path="url(#14)"></g><g clip-path="url(#15)"></g><g clip-path="url(#16)"></g><g clip-path="url(#17)"></g><g clip-path="url(#18)"></g><g clip-path="url(#19)"><g transform="matrix(0.4797963 0 0 0.4798232 92.14999 532.2299)"><g transform="matrix(1 0 0 1 0 0)"><image x="0" y="0" xlink:href="img_33.png" width="856" height="434" /></g></g></g><g clip-path="url(#20)"></g><g clip-path="url(#21)"></g><g clip-path="url(#22)"></g><g clip-path="url(#23)"></g></g></g></svg>