<svg xmlns="http://www.w3.org/2000/svg" xmlns:xlink="http://www.w3.org/1999/xlink" id="body_4" preserveAspectRatio="xMinYMin meet" viewBox="0 0 793 1121"><defs><clipPath id="1"><path id="" clip-rule="evenodd" d="M0 841L0 -0.9199829L0 -0.9199829L595.32 -0.9199829L595.32 -0.9199829L595.32 841L595.32 841L0 841z" /></clipPath><clipPath id="2"><path id="" clip-rule="evenodd" d="M0 841L595.31 841L595.31 841L595.31 -0.9110107L595.31 -0.9110107L0 -0.9110107z" /></clipPath><clipPath id="3"><path id="" clip-rule="evenodd" d="M0 841L595.31 841L595.31 841L595.31 -0.9110107L595.31 -0.9110107L0 -0.9110107z" /></clipPath><clipPath id="4"><path id="" clip-rule="evenodd" d="M0 841L595.31 841L595.31 841L595.31 -0.9110107L595.31 -0.9110107L0 -0.9110107z" /></clipPath><clipPath id="5"><path id="" clip-rule="evenodd" d="M0 841L595.31 841L595.31 841L595.31 -0.9110107L595.31 -0.9110107L0 -0.9110107z" /></clipPath><clipPath id="6"><path id="" clip-rule="evenodd" d="M0 841L595.31 841L595.31 841L595.31 -0.9110107L595.31 -0.9110107L0 -0.9110107z" /></clipPath><clipPath id="7"><path id="" clip-rule="evenodd" d="M0 841L595.31 841L595.31 841L595.31 -0.9110107L595.31 -0.9110107L0 -0.9110107z" /></clipPath><clipPath id="8"><path id="" clip-rule="evenodd" d="M0 841L595.31 841L595.31 841L595.31 -0.9110107L595.31 -0.9110107L0 -0.9110107z" /></clipPath><clipPath id="9"><path id="" clip-rule="evenodd" d="M0 841L595.31 841L595.31 841L595.31 -0.9110107L595.31 -0.9110107L0 -0.9110107z" /></clipPath><clipPath id="10"><path id="" clip-rule="evenodd" d="M0 841L595.31 841L595.31 841L595.31 -0.9110107L595.31 -0.9110107L0 -0.9110107z" /></clipPath><clipPath id="11"><path id="" clip-rule="evenodd" d="M0 841L595.31 841L595.31 841L595.31 -0.9110107L595.31 -0.9110107L0 -0.9110107z" /></clipPath><clipPath id="12"><path id="" clip-rule="evenodd" d="M0 841L595.31 841L595.31 841L595.31 -0.9110107L595.31 -0.9110107L0 -0.9110107z" /></clipPath><clipPath id="13"><path id="" clip-rule="evenodd" d="M0 841L595.31 841L595.31 841L595.31 -0.9110107L595.31 -0.9110107L0 -0.9110107z" /></clipPath><clipPath id="14"><path id="" clip-rule="evenodd" d="M0 841L595.31 841L595.31 841L595.31 -0.9110107L595.31 -0.9110107L0 -0.9110107z" /></clipPath><clipPath id="15"><path id="" clip-rule="evenodd" d="M0 841L595.31 841L595.31 841L595.31 -0.9110107L595.31 -0.9110107L0 -0.9110107z" /></clipPath><clipPath id="16"><path id="" clip-rule="evenodd" d="M0 841L595.31 841L595.31 841L595.31 -0.9110107L595.31 -0.9110107L0 -0.9110107z" /></clipPath><clipPath id="17"><path id="" clip-rule="evenodd" d="M0 841L595.31 841L595.31 841L595.31 -0.9110107L595.31 -0.9110107L0 -0.9110107z" /></clipPath><clipPath id="18"><path id="" clip-rule="evenodd" d="M0 841L595.32 841L595.32 841L595.32 -0.9199829L595.32 -0.9199829L0 -0.9199829z" /></clipPath><clipPath id="19"><path id="" clip-rule="evenodd" d="M209.4 518.44L258.12 518.44L258.12 518.44L258.12 503.44L258.12 503.44L209.4 503.44z" /></clipPath><clipPath id="20"><path id="" clip-rule="evenodd" d="M0 841L595.32 841L595.32 841L595.32 -0.9199829L595.32 -0.9199829L0 -0.9199829z" /></clipPath><clipPath id="21"><path id="" clip-rule="evenodd" d="M194.76 577.6L242.28 577.6L242.28 577.6L242.28 562.601L242.28 562.601L194.76 562.601z" /></clipPath><clipPath id="22"><path id="" clip-rule="evenodd" d="M0 841L595.32 841L595.32 841L595.32 -0.9199829L595.32 -0.9199829L0 -0.9199829z" /></clipPath><clipPath id="23"><path id="" clip-rule="evenodd" d="M0 841L595.32 841L595.32 841L595.32 -0.9199829L595.32 -0.9199829L0 -0.9199829z" /></clipPath></defs><g transform="matrix(1.333333 0 0 1.333333 0 0)"><g clip-path="url(#1)"><path id="30" transform="matrix(1 0 0 -1 0 841)" d="M88.56 777.84L506.76 777.84L506.76 777.84L506.76 779.28L506.76 779.28L88.56 779.28z" stroke="none" fill="#000000" fill-rule="evenodd" /><path id="31" transform="matrix(1 0 0 -1 0 841)" d="M88.56 780L506.76 780L506.76 780.72L88.56 780.72z" stroke="none" fill="#000000" fill-rule="nonzero" /><g clip-path="url(#2)"></g><g clip-path="url(#3)"></g><g clip-path="url(#4)"></g><g clip-path="url(#5)"></g><g clip-path="url(#6)"></g><g clip-path="url(#7)"></g><g clip-path="url(#8)"></g><g clip-path="url(#9)"></g><g clip-path="url(#10)"></g><g clip-path="url(#11)"></g><g clip-path="url(#12)"></g><g clip-path="url(#13)"></g><g transform="matrix(0.4413454 0 0 0.4389816 111 518.6798)"><g transform="matrix(1 0 0 1 0 0)"><image x="0" y="0" xlink:href="img_04.png" width="859" height="496" /></g></g><g clip-path="url(#14)"></g><g clip-path="url(#15)"></g><g clip-path="url(#16)"></g><g clip-path="url(#17)"></g><g clip-path="url(#18)"><path id="406" transform="matrix(1 0 0 -1 0 841)" d="M216.4 342.22C 211.596 342.22 207.7 340.414 207.7 338.187L207.7 338.187L207.7 328.103L207.7 328.103L207.7 322.053C 207.7 319.826 211.596 318.02 216.4 318.02L216.4 318.02L210.6 312.42L210.6 312.42L229.45 318.02L229.45 318.02L251.2 318.02C 256.004 318.02 259.9 319.826 259.9 322.053L259.9 322.053L259.9 328.103L259.9 328.103L259.9 338.187C 259.9 340.414 256.004 342.22 251.2 342.22L251.2 342.22L229.45 342.22z" stroke="none" fill="#FFFFFF" fill-rule="evenodd" /><path id="407" transform="matrix(1 0 0 -1 0 841)" d="M216.4 342.22C 211.596 342.22 207.7 340.414 207.7 338.187L207.7 338.187L207.7 328.103L207.7 328.103L207.7 322.053C 207.7 319.826 211.596 318.02 216.4 318.02L216.4 318.02L210.6 312.42L210.6 312.42L229.45 318.02L229.45 318.02L251.2 318.02C 256.004 318.02 259.9 319.826 259.9 322.053L259.9 322.053L259.9 328.103L259.9 328.103L259.9 338.187C 259.9 340.414 256.004 342.22 251.2 342.22L251.2 342.22L229.45 342.22L229.45 342.22L216.4 342.22z" stroke="#000000" stroke-width="0.75" stroke-linecap="round" fill="none" /></g><g clip-path="url(#19)"></g><g clip-path="url(#20)"><path id="411" transform="matrix(1 0 0 -1 0 841)" d="M201.5 283.02C 196.806 283.02 193 281.21 193 278.978L193 278.978L193 272.916L193 272.916L193 262.812C 193 260.58 196.806 258.77 201.5 258.77L201.5 258.77L214.25 258.77L214.25 258.77L235.5 258.77C 240.194 258.77 244 260.58 244 262.812L244 262.812L244 272.916L244 272.916L244 278.978C 244 281.21 240.194 283.02 235.5 283.02L235.5 283.02L214.25 283.02L214.25 283.02L196.001 294.72z" stroke="none" fill="#FFFFFF" fill-rule="evenodd" /><path id="412" transform="matrix(1 0 0 -1 0 841)" d="M201.5 283.02C 196.806 283.02 193 281.21 193 278.978L193 278.978L193 272.916L193 272.916L193 262.812C 193 260.58 196.806 258.77 201.5 258.77L201.5 258.77L214.25 258.77L214.25 258.77L235.5 258.77C 240.194 258.77 244 260.58 244 262.812L244 262.812L244 272.916L244 272.916L244 278.978C 244 281.21 240.194 283.02 235.5 283.02L235.5 283.02L214.25 283.02L214.25 283.02L196.001 294.72L196.001 294.72L201.5 283.02z" stroke="#000000" stroke-width="0.75" stroke-linecap="round" fill="none" /></g><g clip-path="url(#21)"></g><g clip-path="url(#22)"><path id="416" transform="matrix(1 0 0 -1 0 841)" d="M201.5 239.02C 196.806 239.02 193 237.117 193 234.77L193 234.77L193 224.145L193 224.145L193 217.77C 193 215.423 196.806 213.52 201.5 213.52L201.5 213.52L192.601 205.87L192.601 205.87L214.25 213.52L214.25 213.52L235.5 213.52C 240.194 213.52 244 215.423 244 217.77L244 217.77L244 224.145L244 224.145L244 234.77C 244 237.117 240.194 239.02 235.5 239.02L235.5 239.02L214.25 239.02z" stroke="none" fill="#FFFFFF" fill-rule="evenodd" /><path id="417" transform="matrix(1 0 0 -1 0 841)" d="M201.5 239.02C 196.806 239.02 193 237.117 193 234.77L193 234.77L193 224.145L193 224.145L193 217.77C 193 215.423 196.806 213.52 201.5 213.52L201.5 213.52L192.601 205.87L192.601 205.87L214.25 213.52L214.25 213.52L235.5 213.52C 240.194 213.52 244 215.423 244 217.77L244 217.77L244 224.145L244 224.145L244 234.77C 244 237.117 240.194 239.02 235.5 239.02L235.5 239.02L214.25 239.02L214.25 239.02L201.5 239.02z" stroke="#000000" stroke-width="0.75" stroke-linecap="round" fill="none" /></g><g clip-path="url(#23)"><path id="421" transform="matrix(1 0 0 -1 0 841)" d="M333.925 221.82C 328.941 221.82 324.9 219.727 324.9 217.145L324.9 217.145L324.9 205.458L324.9 205.458L324.9 198.445C 324.9 195.863 328.941 193.77 333.925 193.77L333.925 193.77L328.299 186.771L328.299 186.771L347.463 193.77L347.463 193.77L370.025 193.77C 375.009 193.77 379.05 195.863 379.05 198.445L379.05 198.445L379.05 205.458L379.05 205.458L379.05 217.145C 379.05 219.727 375.009 221.82 370.025 221.82L370.025 221.82L347.463 221.82z" stroke="none" fill="#FFFFFF" fill-rule="evenodd" /><path id="422" transform="matrix(1 0 0 -1 0 841)" d="M333.925 221.82C 328.941 221.82 324.9 219.727 324.9 217.145L324.9 217.145L324.9 205.458L324.9 205.458L324.9 198.445C 324.9 195.863 328.941 193.77 333.925 193.77L333.925 193.77L328.299 186.771L328.299 186.771L347.463 193.77L347.463 193.77L370.025 193.77C 375.009 193.77 379.05 195.863 379.05 198.445L379.05 198.445L379.05 205.458L379.05 205.458L379.05 217.145C 379.05 219.727 375.009 221.82 370.025 221.82L370.025 221.82L347.463 221.82L347.463 221.82L333.925 221.82z" stroke="#000000" stroke-width="0.75" stroke-linecap="round" fill="none" /></g></g></g></svg>