<svg xmlns="http://www.w3.org/2000/svg" xmlns:xlink="http://www.w3.org/1999/xlink" id="body_9" preserveAspectRatio="xMinYMin meet" viewBox="0 0 793 1121"><defs><clipPath id="1"><path id="" clip-rule="evenodd" d="M0 841L0 -0.9199829L0 -0.9199829L595.32 -0.9199829L595.32 -0.9199829L595.32 841L595.32 841L0 841z" /></clipPath><clipPath id="2"><path id="" clip-rule="evenodd" d="M0 841L595.31 841L595.31 841L595.31 -0.9110107L595.31 -0.9110107L0 -0.9110107z" /></clipPath><clipPath id="3"><path id="" clip-rule="evenodd" d="M0 841L595.31 841L595.31 841L595.31 -0.9110107L595.31 -0.9110107L0 -0.9110107z" /></clipPath><clipPath id="4"><path id="" clip-rule="evenodd" d="M0 841L595.31 841L595.31 841L595.31 -0.9110107L595.31 -0.9110107L0 -0.9110107z" /></clipPath><clipPath id="5"><path id="" clip-rule="evenodd" d="M0 841L595.31 841L595.31 841L595.31 -0.9110107L595.31 -0.9110107L0 -0.9110107z" /></clipPath><clipPath id="6"><path id="" clip-rule="evenodd" d="M0 841L595.31 841L595.31 841L595.31 -0.9110107L595.31 -0.9110107L0 -0.9110107z" /></clipPath><clipPath id="7"><path id="" clip-rule="evenodd" d="M376.9 211.13L386.399 211.13L386.399 211.13L386.399 201.63L386.399 201.63L376.9 201.63z" /></clipPath><clipPath id="8"><path id="" clip-rule="evenodd" d="M0 841L595.31 841L595.31 841L595.31 -0.9110107L595.31 -0.9110107L0 -0.9110107z" /></clipPath><clipPath id="9"><path id="" clip-rule="evenodd" d="M0 841L595.31 841L595.31 841L595.31 -0.9110107L595.31 -0.9110107L0 -0.9110107z" /></clipPath><clipPath id="10"><path id="" clip-rule="evenodd" d="M0 841L595.31 841L595.31 841L595.31 -0.9110107L595.31 -0.9110107L0 -0.9110107z" /></clipPath><clipPath id="11"><path id="" clip-rule="evenodd" d="M0 841L595.31 841L595.31 841L595.31 -0.9110107L595.31 -0.9110107L0 -0.9110107z" /></clipPath><clipPath id="12"><path id="" clip-rule="evenodd" d="M0 841L595.31 841L595.31 841L595.31 -0.9110107L595.31 -0.9110107L0 -0.9110107z" /></clipPath><clipPath id="13"><path id="" clip-rule="evenodd" d="M0 841L595.31 841L595.31 841L595.31 -0.9110107L595.31 -0.9110107L0 -0.9110107z" /></clipPath><clipPath id="14"><path id="" clip-rule="evenodd" d="M0 841L595.31 841L595.31 841L595.31 -0.9110107L595.31 -0.9110107L0 -0.9110107z" /></clipPath><clipPath id="15"><path id="" clip-rule="evenodd" d="M0 841L595.31 841L595.31 841L595.31 -0.9110107L595.31 -0.9110107L0 -0.9110107z" /></clipPath><clipPath id="16"><path id="" clip-rule="evenodd" d="M0 841L595.31 841L595.31 841L595.31 -0.9110107L595.31 -0.9110107L0 -0.9110107z" /></clipPath><clipPath id="17"><path id="" clip-rule="evenodd" d="M0 841L595.31 841L595.31 841L595.31 -0.9110107L595.31 -0.9110107L0 -0.9110107z" /></clipPath><clipPath id="18"><path id="" clip-rule="evenodd" d="M0 841L595.31 841L595.31 841L595.31 -0.9110107L595.31 -0.9110107L0 -0.9110107z" /></clipPath><clipPath id="19"><path id="" clip-rule="evenodd" d="M0 841L595.31 841L595.31 841L595.31 -0.9110107L595.31 -0.9110107L0 -0.9110107z" /></clipPath><clipPath id="20"><path id="" clip-rule="evenodd" d="M0 841L595.31 841L595.31 841L595.31 -0.9110107L595.31 -0.9110107L0 -0.9110107z" /></clipPath><clipPath id="21"><path id="" clip-rule="evenodd" d="M0 841L595.31 841L595.31 841L595.31 -0.9110107L595.31 -0.9110107L0 -0.9110107z" /></clipPath><clipPath id="22"><path id="" clip-rule="evenodd" d="M0 841L595.31 841L595.31 841L595.31 -0.9110107L595.31 -0.9110107L0 -0.9110107z" /></clipPath><clipPath id="23"><path id="" clip-rule="evenodd" d="M0 841L595.31 841L595.31 841L595.31 -0.9110107L595.31 -0.9110107L0 -0.9110107z" /></clipPath></defs><g transform="matrix(1.333333 0 0 1.333333 0 0)"><g clip-path="url(#1)"><path id="30" transform="matrix(1 0 0 -1 0 841)" d="M88.56 777.84L506.76 777.84L506.76 777.84L506.76 779.28L506.76 779.28L88.56 779.28z" stroke="none" fill="#000000" fill-rule="evenodd" /><path id="31" transform="matrix(1 0 0 -1 0 841)" d="M88.56 780L506.76 780L506.76 780.72L88.56 780.72z" stroke="none" fill="#000000" fill-rule="nonzero" /><g transform="matrix(0.4619043 0 0 0.4642857 198 81.38)"><g transform="matrix(1 0 0 1 0 0)"><image x="0" y="0" xlink:href="img_19.png" width="21" height="21" /></g></g><g clip-path="url(#2)"></g><g clip-path="url(#3)"></g><g clip-path="url(#4)"></g><g clip-path="url(#5)"></g><g clip-path="url(#6)"></g><g clip-path="url(#7)"><g transform="matrix(0.474999 0 0 0.4750004 376.9 201.63)"><g transform="matrix(1 0 0 1 0 0)"><image x="0" y="0" xlink:href="img_20.png" width="20" height="20" /></g></g></g><g clip-path="url(#8)"></g><g clip-path="url(#9)"></g><g clip-path="url(#10)"></g><g transform="matrix(0.4619043 0 0 0.4619056 198 281.33)"><g transform="matrix(1 0 0 1 0 0)"><image x="0" y="0" xlink:href="img_21.png" width="21" height="21" /></g></g><g clip-path="url(#11)"></g><g clip-path="url(#12)"></g><g clip-path="url(#13)"></g><g clip-path="url(#14)"></g><g clip-path="url(#15)"></g><g clip-path="url(#16)"></g><g clip-path="url(#17)"></g><g clip-path="url(#18)"></g><g transform="matrix(0.3755535 0 0 0.3748132 179.0499 456.5299)"><g transform="matrix(1 0 0 1 0 0)"><image x="0" y="0" xlink:href="img_22.png" width="688" height="534" /></g></g><g clip-path="url(#19)"></g><g clip-path="url(#20)"></g><g clip-path="url(#21)"></g><g clip-path="url(#22)"></g><g clip-path="url(#23)"></g></g></g></svg>